<?xml version="1.0" standalone="no"?>
<!DOCTYPE svg PUBLIC "-//W3C//DTD SVG 1.1//EN" "http://www.w3.org/Graphics/SVG/1.1/DTD/svg11.dtd" >
<svg xmlns="http://www.w3.org/2000/svg">
<defs>
  <font id="myfont" horiz-adv-x="1001.0000000000001">
    <font-face font-family="myfont"
      units-per-em="1001" ascent="1001"
      descent="0" />
    <missing-glyph horiz-adv-x="0" />
    <glyph glyph-name="arrow_left"
      unicode="&#xE001;"
      horiz-adv-x="1001" d="M643.220703125 330.408203125L584.568359375 271.755859375L334.318359375 522.005859375L584.568359375 772.255859375L643.220703125 713.603515625L451.623046875 522.005859375z" />
    <glyph glyph-name="arrow_right"
      unicode="&#xE002;"
      horiz-adv-x="1001" d="M357.779296875 318.677734375L549.376953125 510.275390625L357.779296875 701.873046875L416.431640625 760.525390625L666.681640625 510.275390625L416.431640625 260.025390625z" />
    <glyph glyph-name="burger"
      unicode="&#xE003;"
      horiz-adv-x="1001" d="M950.9507873829938 550.5507873829938H50.0492126170062C22.421518131047 550.5507873829938 0 528.1292692519469 0 500.5015747659875C0 472.8738802800283 22.421518131047 450.4523621489814 50.0492126170062 450.4523621489814H950.9476378510186C978.4745473137734 450.4523621489814 1000.996850468025 472.8738802800283 1000.996850468025 500.5015747659875C1001 528.1292692519469 978.4776968457484 550.5507873829938 950.9507873829938 550.5507873829938zM50.0492126170062 750.7507873829937H950.9476378510186C978.4745473137734 750.7507873829937 1000.996850468025 773.1723055140408 1000.996850468025 800.8S978.4745473137734 850.8492126170062 950.9476378510186 850.8492126170062H50.0492126170062C22.421518131047 850.8492126170062 0 828.4276944859593 0 800.8S22.421518131047 750.7507873829937 50.0492126170062 750.7507873829937zM950.9507873829938 250.2492126170062H50.0492126170062C22.421518131047 250.2492126170062 0 227.7269094627547 0 200.2000000000001C0 172.6730905372454 22.421518131047 150.1507873829937 50.0492126170062 150.1507873829937H950.9476378510186C978.4745473137734 150.1507873829937 1000.996850468025 172.6730905372454 1000.996850468025 200.1999999999999C1001 227.7269094627547 978.4776968457484 250.2492126170062 950.9507873829938 250.2492126170062z" />
    <glyph glyph-name="cart"
      unicode="&#xE004;"
      horiz-adv-x="1001" d="M300.3 200.2000000000001C245.245 200.2000000000001 200.2 155.1550000000001 200.2 100.1S245.245 0 300.3 0S400.4 45.0450000000001 400.4 100.1S355.355 200.2000000000001 300.3 200.2000000000001zM0 1001V900.9H100.1L280.2800000000001 520.52L210.21 400.4C205.205 385.3850000000001 200.2 365.365 200.2 350.35C200.2 295.295 245.245 250.25 300.3 250.25H900.9V350.35H320.32C315.315 350.35 310.31 355.355 310.31 360.3600000000002V365.3669627450982L355.355 450.4519627450982H725.725C765.7649999999999 450.4519627450982 795.795 470.4719627450982 810.8100000000001 500.5019627450981L990.9899999999998 825.825C1001 835.835 1001 840.84 1001 850.85C1001 880.88 980.98 900.9 950.95 900.9H210.21L165.165 1001H0zM800.8 200.2000000000001C745.7449999999999 200.2000000000001 700.6999999999999 155.1550000000001 700.6999999999999 100.1S745.7449999999999 0 800.8 0S900.9 45.0450000000001 900.9 100.1S855.855 200.2000000000001 800.8 200.2000000000001z" />
    <glyph glyph-name="checked"
      unicode="&#xE005;"
      horiz-adv-x="1001" d="M0 1001V0H1001V1001H0zM742.3249166666666 628.47785L475.3915833333333 328.1778500000001C468.81835 320.7871333333334 459.6592 316.9833333333334 450.4333166666667 316.9833333333334C443.1093333333333 316.9833333333334 435.7519833333334 319.3857333333333 429.5958333333334 324.2906333333334L262.7625 457.7573C248.3814666666667 469.2521166666667 246.0458 490.2564333333333 257.5573 504.65415C269.0521166666667 519.0351833333334 290.0731166666667 521.3875333333333 304.4541500000001 509.8760333333333L446.5461 396.2124833333334L692.4417500000001 672.8388333333334C704.65395 686.6192666666667 725.77505 687.8705166666666 739.5388 675.6082666666666C753.3192333333334 663.3460166666666 754.5704833333333 642.2582833333333 742.3249166666666 628.47785z" />
    <glyph glyph-name="dot"
      unicode="&#xE006;"
      horiz-adv-x="1001" d="M0 500.5A500.5 500.5 0 0 1 1001 500.5A500.5 500.5 0 0 1 0 500.5" />
    <glyph glyph-name="dribbble"
      unicode="&#xE007;"
      horiz-adv-x="1001" d="M500.5 1001C224.0571666666667 1001 0 776.901125 0 500.5S224.0571666666667 0 500.5 0S1001 224.098875 1001 500.5S776.9428333333334 1001 500.5 1001zM912.786875 523.8149583333333C805.3879166666667 541.4158749999999 706.6225833333334 542.3751666666667 616.5325833333333 526.8596666666666C606.35575 550.3414583333333 595.8035416666667 573.7815416666666 584.5422916666666 596.9296666666667C680.8885416666667 638.6379999999999 758.2575 695.2779166666667 815.940125 767.1830833333333C872.2463750000001 700.6999999999999 907.5733333333332 616.2406249999999 912.786875 523.8149583333333zM752.5434583333333 827.5350416666666C702.2849166666667 762.7202916666666 632.9239583333333 711.46075 544.5857083333333 674.048375C502.2100416666667 751.6675833333333 453.7449583333333 827.3682083333333 399.1070416666667 900.8582916666666C431.5978333333333 909.0748333333333 465.465 913.9547083333334 500.5 913.9547083333334C595.3864583333334 913.9547083333334 682.6820000000001 881.4639166666666 752.5434583333333 827.5350416666666zM313.938625 868.9514166666667C369.4524166666667 796.2955 418.6682500000001 721.3873333333333 461.461 644.518875C360.10975 614.6974166666666 239.113875 599.3904583333333 99.2658333333334 598.4311666666666C128.1280000000001 716.6742916666666 207.7492083333334 815.0225416666666 313.9386250000001 868.9514166666665zM87.0452916666666 500.5L87.5875 511.1773333333333C248.122875 511.385875 386.5945416666666 529.8626666666667 502.5854166666666 566.31575C512.3034583333333 546.5042916666666 521.6044166666666 526.6094166666667 530.5299999999999 506.5894166666666C389.5558333333333 462.5037083333333 273.3981249999999 372.2051666666667 182.8076249999999 236.3194166666665C123.0812916666666 308.0160416666665 87.0452916666666 400.1080416666665 87.0452916666666 500.4999999999998zM246.7465 174.7579166666667C328.8702083333333 303.5532500000001 433.68325 387.387 563.6464166666667 426.1340416666667C602.35175 325.1998750000002 630.755125 221.346125 648.8565416666667 114.989875C509.1753333333333 61.1444166666666 358.8585 87.212125 246.7465 174.7579166666667zM729.97925 156.8233333333334C711.711 254.9630416666668 684.9342499999999 350.8922083333333 649.8992499999999 444.4857083333334C728.1440833333334 455.5384166666668 814.2300833333334 452.6605416666667 908.4492083333334 436.310875C890.2226666666667 320.1114583333333 823.8647083333334 219.7612083333334 729.97925 156.8233333333334z" />
    <glyph glyph-name="facebook"
      unicode="&#xE008;"
      horiz-adv-x="1001" d="M375.375 667.3333333333333H250.25V500.5H375.375V0H583.9166666666667V500.5H735.8184166666667L750.75 667.3333333333333H583.9166666666667V736.8611249999999C583.9166666666667 776.6925833333333 591.9246666666667 792.4583333333333 630.4214583333334 792.4583333333333H750.75V1001H591.9246666666667C441.9415 1001 375.375 934.9757083333334 375.375 808.5160416666666V667.3333333333333z" />
    <glyph glyph-name="google"
      unicode="&#xE009;"
      horiz-adv-x="1001" d="M99.54945 721.27055C99.54945 646.49585 124.5244 592.5419499999999 173.72355 560.8603C214.06385 534.8343 260.81055 530.9304 285.13485 530.9304C291.04075 530.9304 295.7955 531.2307 299.0988 531.4309C299.0988 531.4309 291.3911 481.1807 328.6283 431.5310999999999H326.9266C262.41215 431.5310999999999 52.00195 418.06765 52.00195 244.99475C52.00195 69.0189499999999 245.245 60.0600000000001 284.03375 60.0600000000001C287.0868 60.0600000000001 288.8886 60.1600999999999 288.8886 60.1600999999999C289.289 60.1600999999999 292.04175 60.0600000000001 296.7965000000001 60.0600000000001C321.67135 60.0600000000001 385.9856000000001 63.1631000000001 445.6952500000001 92.24215C523.17265 129.7796500000001 562.4619 195.2951000000001 562.4619 286.6864000000001C562.4619 374.9746 502.6021000000001 427.5271 458.90845 465.9655C432.2318 489.4389499999999 409.15875 509.65915 409.15875 529.3288C409.15875 549.3488 426.0256 564.4138499999999 447.29685 583.4829C481.7813 614.26365 514.3138 658.1575 514.3138 741.1404C514.3138 814.0632499999999 504.8543500000001 863.0622 446.5461 894.14325C452.6021500000001 897.24635 474.12365 899.4986 484.73425 901.0001C516.3158 905.3044 562.51195 910.2093 562.51195 935.98505V940.94H332.332C330.0297 940.8399 99.54945 932.3314 99.54945 721.27055zM471.12065 270.1699C475.52505 199.7996000000001 415.3149 147.89775 324.87455 141.3412C233.0328 134.5844499999998 157.4573 175.9257499999999 153.0529 246.246C150.90075 280.0798 165.7656 313.1128 194.84465 339.4891499999999C224.3241 366.1657999999999 264.81455 382.6823 308.8585499999999 385.9355499999999C314.06375 386.2358500000001 319.2189 386.53615 324.37405 386.53615C409.409 386.4861 466.9664999999999 336.5362 471.1206499999999 270.1699zM411.0106 769.4687C433.58315 689.9893 399.4991 607.0064 345.1448 591.64105C338.88855 589.8893 332.48215 589.03845 325.9256 589.03845C276.1759 589.03845 226.87665 639.3887500000001 208.55835 708.8081C198.34815 747.6469 199.199 781.781 210.9107 814.5137C222.37215 846.79595 243.09285 868.4676000000001 269.11885 875.8249500000001C275.3751 877.5767000000001 281.83155 878.4776 288.3881 878.4776C348.4481 878.4776 387.0867 853.5527 411.0106 769.4687zM800.8 600.6V750.75H700.6999999999999V600.6H550.55V500.5H700.6999999999999V350.35H800.8V500.5H950.95V600.6H800.8z" />
    <glyph glyph-name="google_plus"
      unicode="&#xE00A;"
      horiz-adv-x="1001" d="M875.875 563.0625L875.875 688.1875L813.3125 688.1875L813.3125 563.0625L688.1875 563.0625L688.1875 500.5L813.3125 500.5L813.3125 375.375L875.875 375.375L875.875 500.5L1001 500.5L1001 563.0625zM312.8125 563.0625V437.9375H489.8018125C463.9635 365.1147500000001 394.394 312.8125 312.8125 312.8125C209.334125 312.8125 125.125 397.021625 125.125 500.5C125.125 603.9783749999999 209.334125 688.1875 312.8125 688.1875C357.6698125 688.1875 400.8379375 672.1089375 434.3714375 642.89225L516.5785625 737.2365C460.2723125 786.2855 387.9500625 813.3125 312.8125 813.3125C140.3276875 813.3125 0 672.9848125 0 500.5S140.3276875 187.6875 312.8125 187.6875S625.625 328.0151875 625.625 500.5V563.0625H312.8125z" />
    <glyph glyph-name="keyboard_arrow_left"
      unicode="&#xE00B;"
      horiz-adv-x="1001" d="M643.220703125 330.408203125L584.568359375 271.755859375L334.318359375 522.005859375L584.568359375 772.255859375L643.220703125 713.603515625L451.623046875 522.005859375z" />
    <glyph glyph-name="keyboard_arrow_right"
      unicode="&#xE00C;"
      horiz-adv-x="1001" d="M357.779296875 318.677734375L549.376953125 510.275390625L357.779296875 701.873046875L416.431640625 760.525390625L666.681640625 510.275390625L416.431640625 260.025390625z" />
    <glyph glyph-name="left_arro"
      unicode="&#xE00D;"
      horiz-adv-x="1001" d="M500.5 49.6620155038761C748.8100775193798 49.6620155038761 951.337984496124 251.4139534883722 951.337984496124 500.5S749.5860465116278 950.562015503876 500.5 950.562015503876S50.437984496124 748.8100775193799 50.437984496124 500.5S252.1899224806202 49.6620155038761 500.5 49.6620155038761zM500.5 887.7085271317831C713.891472868217 887.708527131783 887.708527131783 713.8914728682171 887.708527131783 500.5S713.891472868217 113.2914728682171 500.5 113.2914728682171S113.2914728682171 287.1085271317831 113.2914728682171 500.5S287.1085271317829 887.708527131783 500.5 887.708527131783zM543.1782945736434 275.468992248062C549.3860465116279 269.2612403100776 557.1457364341085 266.1573643410854 565.6813953488372 266.1573643410854C573.4410852713179 266.1573643410854 581.9767441860465 269.2612403100776 588.184496124031 275.468992248062C600.6 287.884496124031 600.6 308.0596899224807 588.184496124031 320.4751937984496L405.8317829457365 502.8279069767442L588.184496124031 685.1806201550387C600.6 697.5961240310078 600.6 717.7713178294573 588.184496124031 730.1868217054264S555.5937984496124 742.6023255813953 543.1782945736435 730.1868217054264L338.3224806201552 525.3310077519379C332.1147286821707 519.1232558139535 329.0108527131784 511.3635658914729 329.0108527131784 502.8279069767442S332.1147286821706 486.5325581395349 338.3224806201552 480.3248062015504L543.1782945736435 275.468992248062z" />
    <glyph glyph-name="linkedin"
      unicode="&#xE00E;"
      horiz-adv-x="1001" d="M375.375 625.625H548.503033203125V536.882048828125H550.978162109375C575.064724609375 580.08341015625 634.02792578125 625.625 721.893046875 625.625C904.640064453125 625.625 938.4375 511.8629140625 938.4375 363.9045566406251V62.5625H757.974013671875V329.7024199218751C757.974013671875 393.422326171875 756.6699765625 475.3811562500001 664.102892578125 475.3811562500001C570.1144667968749 475.3811562500001 555.7720136718749 405.9895683593751 555.7720136718749 334.3300898437501V62.5625H375.3749999999999V625.625zM62.5625 625.625H250.25V62.5625H62.5625V625.625zM250.25 782.03125C250.25 730.20212890625 208.23537109375 688.1875 156.40625 688.1875S62.5625 730.20212890625 62.5625 782.03125C62.5625 833.86037109375 104.57712890625 875.875 156.40625 875.875S250.25 833.86037109375 250.25 782.03125z" />
    <glyph glyph-name="location"
      unicode="&#xE00F;"
      horiz-adv-x="1001" d="M500.5 1001C327.7375664062501 1001 187.6875 860.94993359375 187.6875 688.1875C187.6875 375.375 500.5 0 500.5 0S813.3125 375.375 813.3125 688.1875C813.3125 860.94993359375 673.260478515625 1001 500.5 1001zM500.5 500.5C396.8417578125 500.5 312.8125 584.5292578125 312.8125 688.1875S396.8417578125 875.875 500.5 875.875S688.1875 791.8457421875 688.1875 688.1875S604.1582421874999 500.5 500.5 500.5z" />
    <glyph glyph-name="mail"
      unicode="&#xE010;"
      horiz-adv-x="1001" d="M78.7787 736.4357C103.2031 723.3226 441.5411000000001 541.541 454.1537 534.78425S483.0826 524.8243 499.499 524.8243C515.9154 524.8243 532.2316999999999 528.0275000000001 544.8443 534.78425S895.7949 723.3226 920.2193 736.4357C944.6937500000003 749.5988500000001 967.8168500000002 800.8000000000001 922.922 800.8000000000001H76.12605C31.2312 800.8000000000001 54.3543 749.5988500000001 78.7787 736.4357zM931.5806499999998 626.17555C903.8029 611.7111 561.8612999999999 433.5331 544.8443 424.6242000000001S515.9154 414.6642500000001 499.4989999999999 414.6642500000001S471.1706999999999 415.7153000000001 454.1536999999999 424.6242000000001S97.1470499999999 611.76115 69.3692999999999 626.2256C49.8497999999999 636.4358 50.0499999999999 624.47385 50.0499999999999 615.26465S50.0499999999999 250.25 50.0499999999999 250.25C50.0499999999999 229.2290000000001 78.3782999999999 200.2000000000001 100.0999999999999 200.2000000000001H900.9C922.6217 200.2000000000001 950.95 229.2290000000001 950.95 250.25C950.95 250.25 950.95 606.0054 950.95 615.2146S951.1502 636.38575 931.5806499999998 626.17555z" />
    <glyph glyph-name="phone"
      unicode="&#xE011;"
      horiz-adv-x="1001" d="M562.01145 438.9885500000001C482.7822999999999 359.8094500000001 390.9906 284.0337500000001 354.7043499999999 320.3200000000001C302.8025 372.2218500000002 270.7704999999999 417.4670500000001 156.2561 325.4251000000001C41.79175 233.4332000000002 129.7295999999999 172.0719000000002 180.02985 121.8217000000001C238.0878499999999 63.7637000000001 454.5040499999999 118.7186000000001 668.4177499999998 332.5822500000002C882.2814 546.49595 937.0861499999997 762.9121500000001 878.9780999999998 820.9701500000001C828.6778499999999 871.32045 767.6168499999999 959.20825 675.6249499999999 844.7439C583.5829999999999 730.2795500000001 628.7781499999999 698.24755 680.7800999999998 646.29565C716.9161999999999 610.0094 641.1905499999999 518.2176999999999 562.01145 438.9885500000001z" />
    <glyph glyph-name="pinterest"
      unicode="&#xE012;"
      horiz-adv-x="1001" d="M431.2808500000001 338.98865C404.9545500000001 201.1509500000001 372.8725000000001 69.0189499999999 277.7274500000001 0C248.3981500000001 208.3081 320.8205000000001 364.71435 354.5041500000001 530.78025C297.0968000000001 627.37675 361.4110500000001 821.6708500000001 482.3819 773.773C631.28065 714.9142 353.4531000000001 414.8144000000001 539.9394000000001 377.2769000000001C734.6839500000001 338.1878500000001 814.1633500000002 715.1144 693.3927000000001 837.68685C518.9684500000002 1014.76375 185.5854000000001 841.841 226.6264000000001 588.3377499999999C236.5863500000001 526.37585 300.6003000000001 507.6071 252.2019500000001 422.07165C140.5404000000001 446.79635 107.2071000000001 534.88435 111.5114000000001 652.30165C118.4183000000001 844.49365 284.1338500000001 978.978 450.3999500000001 997.64665C660.6600000000001 1021.2202 858.00715 920.4195 885.2844000000001 722.67195C915.96505 499.3989 790.3896000000001 257.5573000000001 565.5149500000001 274.9747C504.5540500000001 279.7294500000001 479.0285500000001 309.95965 431.2808500000001 338.98865z" />
    <glyph glyph-name="right"
      unicode="&#xE013;"
      horiz-adv-x="1001" d="M500.5 49.6620155038761C748.8100775193798 49.6620155038761 951.337984496124 251.4139534883722 951.337984496124 500.5S748.8100775193798 951.337984496124 500.5 951.337984496124S49.662015503876 748.8100775193799 49.662015503876 500.5S252.1899224806202 49.6620155038761 500.5 49.6620155038761zM500.5 887.708527131783C713.891472868217 887.708527131783 887.708527131783 713.8914728682171 887.708527131783 500.5S713.891472868217 113.2914728682171 500.5 113.2914728682171S113.2914728682171 287.1085271317831 113.2914728682171 500.5S287.1085271317829 887.708527131783 500.5 887.708527131783zM396.5201550387597 275.468992248062C402.7279069767442 269.2612403100776 410.4875968992248 266.1573643410854 419.0232558139535 266.1573643410854C426.7829457364341 266.1573643410854 435.3186046511628 269.2612403100776 441.5263565891473 275.468992248062L646.3821705426355 480.3248062015505C652.5899224806201 486.5325581395349 655.6937984496124 494.2922480620156 655.6937984496124 502.8279069767443C655.6937984496124 511.363565891473 652.5899224806201 519.1232558139536 646.3821705426355 525.3310077519382L441.5263565891473 730.1868217054264C429.1108527131783 742.6023255813955 408.9356589147286 742.6023255813955 396.5201550387597 730.1868217054264C384.1046511627907 717.7713178294574 384.1046511627907 697.5961240310078 396.5201550387597 685.1806201550389L578.8728682170541 502.8279069767443L396.5201550387597 320.4751937984497C384.1046511627906 308.0596899224808 384.1046511627906 287.8844961240311 396.5201550387597 275.4689922480622z" />
    <glyph glyph-name="search"
      unicode="&#xE014;"
      horiz-adv-x="1001" d="M969.0191693290736 89.2476038338658L730.779552715655 337.0287539936102C792.035143769968 409.8466453674121 825.5974440894569 501.4664536741214 825.5974440894569 596.8466453674122C825.5974440894569 819.6932907348244 644.2907348242812 1001 421.4440894568691 1001S17.2907348242812 819.6932907348244 17.2907348242812 596.8466453674122S198.5974440894569 192.6932907348244 421.4440894568691 192.6932907348244C505.1038338658147 192.6932907348244 584.8274760383387 217.926517571885 652.9888178913739 265.8274760383387L893.038338658147 16.1661341853036C903.0718849840256 5.7460063897764 916.5670926517572 0 931.0287539936102 0C944.7172523961661 0 957.702875399361 5.2188498402555 967.5607028753994 14.7076677316295C988.5063897763578 34.8626198083067 989.1741214057508 68.2843450479234 969.0191693290736 89.2476038338658zM421.4440894568691 895.5686900958467C586.1629392971247 895.5686900958467 720.1661341853036 761.5654952076677 720.1661341853036 596.8466453674122S586.1629392971247 298.1246006389777 421.4440894568691 298.1246006389777S122.7220447284345 432.1277955271566 122.7220447284345 596.8466453674122S256.7252396166134 895.5686900958467 421.4440894568691 895.5686900958467z" />
    <glyph glyph-name="tick"
      unicode="&#xE015;"
      horiz-adv-x="1001.0000000000001" d="M500.4973887001936 1001.0000000000002C224.5247799569045 1001.0000000000002 0 776.4804426427086 0 500.5026112998065S224.5247799569045 0 500.4973887001936 0S1000.9947774003872 224.5247799569046 1000.9947774003872 500.5026112998065S776.4752200430955 1001.0000000000002 500.4973887001936 1001.0000000000002zM787.89182279683 585.040831233337L473.4547679047515 270.6037763412586C460.0849128958037 257.2339213323108 442.3124064132063 249.8752784777767 423.4065958146161 249.8752784777767C404.5007852160258 249.8752784777767 386.7282787334284 257.2339213323108 373.3584237244806 270.6037763412586L213.1029546035572 430.8592454621819C199.7330995946094 444.2291004711297 192.3692341404624 462.0016069537271 192.3692341404624 480.9074175523174C192.3692341404624 499.8184507505205 199.7330995946094 517.5909572331179 213.1029546035572 530.9608122420657C226.4675870128922 544.3306672510136 244.2400934954896 551.6945327051606 263.1511266936928 551.6945327051606C282.056937292283 551.6945327051606 299.8346663744933 544.3306672510136 313.1992987838283 530.9555896424529L423.4013732150031 420.7587378108908L687.7850334173331 685.1423980132208C701.154888426281 698.5122530221688 718.9273949088783 705.8708958767029 737.8332055074686 705.8708958767029C756.7390161060589 705.8708958767029 774.5115225886564 698.5122530221688 787.8813775976041 685.1423980132208C815.4880391512362 657.5357364595889 815.4880391512362 612.6370475877434 787.89182279683 585.040831233337z" />
    <glyph glyph-name="twitter"
      unicode="&#xE016;"
      horiz-adv-x="1001" d="M1001 810.935125C964.1715416666668 794.5854583333332 924.5903333333334 783.5744583333333 883.0488333333334 778.6111666666666C925.4662083333334 804.0115416666666 958.0404166666668 844.2600833333333 973.347375 892.2246666666666C933.68275 868.7011666666666 889.7221666666668 851.60075 842.9254166666667 842.3832083333333C805.5130416666668 882.2980833333332 752.0846666666667 907.2396666666666 693.0256666666667 907.2396666666666C560.434875 907.2396666666666 463.0042083333333 783.53275 492.9507916666666 655.1127916666667C322.322 663.663 171.0041666666666 745.4113333333332 69.694625 869.6604583333333C15.890875 777.3599166666665 41.79175 656.6142916666665 133.2164166666667 595.469875C99.5995 596.5542916666666 67.9011666666666 605.7718333333332 40.2485416666666 621.1622083333332C37.9962916666666 526.0255 106.1894166666666 437.0199166666665 204.95475 417.2084583333333C176.050875 409.3672916666666 144.39425 407.532125 112.1954166666666 413.7049583333334C138.3048333333333 332.1234583333334 214.1305833333333 272.7724999999999 304.0537499999999 271.1041666666667C217.7175 203.4115416666666 108.9421666666666 173.173 -1e-13 186.0191666666667C90.8824583333333 127.7526250000001 198.8653333333333 93.7603333333333 314.8145 93.7603333333333C696.1120833333333 93.7603333333333 911.5356249999998 415.7903750000001 898.5226250000001 704.6205833333333C938.6460416666666 733.6078750000001 973.4725 769.7690000000001 1001 810.9351250000001z" />
  </font>
</defs>
</svg>
